<svg xmlns="http://www.w3.org/2000/svg" fill-rule="evenodd" stroke-linejoin="round" stroke-miterlimit="2" clip-rule="evenodd" viewBox="0 0 96 97" id="accordion"><path fill="none" d="M0 .589h96v96H0z"></path><path d="M64.51 87.208c.041-.004.083-.011.125-.02.203-.041.857-.23 1.231-1.13a1.503 1.503 0 0 0-1.157-2.059l-4.143-.637a1.519 1.519 0 0 0-.232-.017l-.012-.017a1.5 1.5 0 0 0-2.095-.334 2.86 2.86 0 0 1-3.938-.569 1.499 1.499 0 0 0-2.08-.283 2.846 2.846 0 0 1-1.704.563 2.841 2.841 0 0 1-1.642-.518 1.5 1.5 0 0 0-1.726 0 2.841 2.841 0 0 1-1.642.518 2.846 2.846 0 0 1-1.704-.563 1.499 1.499 0 0 0-2.08.283 2.86 2.86 0 0 1-1.883 1.086 1.501 1.501 0 0 0 .394 2.974 5.848 5.848 0 0 0 2.93-1.268c.717.314 1.51.488 2.343.488.896 0 1.746-.201 2.505-.561.759.36 1.609.561 2.505.561.833 0 1.626-.174 2.344-.488a5.836 5.836 0 0 0 3.703 1.319c.799 0 1.561-.16 2.256-.45a5.84 5.84 0 0 0 3.833 1.428 5.84 5.84 0 0 0 1.869-.306Zm1.033-2.365Zm-.029-.04.02.027-.013-.018-.007-.009ZM37.129 11.934a2.858 2.858 0 0 1 4.023-.622c.655.487 1.58.361 2.081-.284a2.859 2.859 0 0 1 3.904-.592 1.5 1.5 0 0 0 1.726 0 2.859 2.859 0 0 1 3.904.592 1.501 1.501 0 0 0 2.081.284 2.858 2.858 0 0 1 4.023.622c.487.67 1.424.82 2.095.334a2.865 2.865 0 0 1 4.368 1.349 1.5 1.5 0 0 0 1.983.877 2.857 2.857 0 0 1 1.089-.214 2.85 2.85 0 0 1 1.867.693 1.5 1.5 0 0 0 1.959-2.271 5.837 5.837 0 0 0-4.708-1.356 5.856 5.856 0 0 0-4.883-2.62c-.799 0-1.561.16-2.256.45a5.84 5.84 0 0 0-3.833-1.428c-.833 0-1.626.174-2.344.488a5.838 5.838 0 0 0-3.703-1.318c-.896 0-1.746.201-2.505.561a5.832 5.832 0 0 0-2.505-.561 5.833 5.833 0 0 0-3.703 1.319 5.855 5.855 0 0 0-7.092 1.936 1.5 1.5 0 0 0 2.429 1.761Z"></path><path d="M78.891 89.214a4.605 4.605 0 0 0 5.252-3.852l10.868-70.707a4.605 4.605 0 0 0-3.852-5.251L75.447 6.989a4.605 4.605 0 0 0-5.252 3.852l-11.34 73.776a1.5 1.5 0 0 0 1.255 1.71l18.781 2.887Zm.456-2.965L62.049 83.59l11.112-72.293a1.604 1.604 0 0 1 1.83-1.343l15.712 2.415a1.606 1.606 0 0 1 1.343 1.83L81.177 84.906a1.604 1.604 0 0 1-1.83 1.343Z"></path><path d="M80.671 14.672 69.665 86.278a1.5 1.5 0 1 0 2.965.456l11.006-71.606a1.501 1.501 0 0 0-2.965-.456zM17.109 90.207l22.173-3.408a4.604 4.604 0 0 0 3.852-5.251L32.266 10.841a4.605 4.605 0 0 0-5.252-3.852L4.841 10.397a4.605 4.605 0 0 0-3.852 5.251l10.868 70.707a4.605 4.605 0 0 0 5.252 3.852zm-.456-2.965a1.604 1.604 0 0 1-1.83-1.343L3.954 15.193a1.606 1.606 0 0 1 1.343-1.831L27.47 9.954a1.605 1.605 0 0 1 1.831 1.343l10.868 70.706a1.605 1.605 0 0 1-1.343 1.831l-22.173 3.408z"></path><path d="m17.109 90.207 18.781-2.886a1.501 1.501 0 0 0 1.255-1.711L25.333 8.765a1.5 1.5 0 0 0-1.711-1.255L4.841 10.397a4.605 4.605 0 0 0-3.852 5.251l10.868 70.707a4.605 4.605 0 0 0 5.252 3.852Zm-.456-2.965a1.604 1.604 0 0 1-1.83-1.343L3.954 15.193a1.606 1.606 0 0 1 1.343-1.831l17.298-2.659 11.356 73.88-17.298 2.659Z"></path><path d="m19.962 17.775-7.148 1.099a3.57 3.57 0 0 0-2.987 4.071l.315 2.046a3.57 3.57 0 0 0 4.071 2.987l12.266-1.886a1.5 1.5 0 0 0-.456-2.965l-12.266 1.885a.57.57 0 0 1-.65-.477l-.315-2.046a.571.571 0 0 1 .477-.65l7.149-1.099a1.5 1.5 0 0 0-.456-2.965zM32.5 65.267a1.5 1.5 0 0 0 1.255-1.711l-.944-6.138a1.5 1.5 0 0 0-1.71-1.255l-12.266 1.885a3.57 3.57 0 0 0-2.986 4.071l.314 2.047a3.57 3.57 0 0 0 4.071 2.986L32.5 65.267zm-1.938-2.738-10.783 1.658a.57.57 0 0 1-.651-.477l-.314-2.046a.57.57 0 0 1 .477-.65l10.783-1.658.488 3.173zm-2.726 7.502-6.994 1.075a3.57 3.57 0 0 0-2.986 4.072l.314 2.046a3.57 3.57 0 0 0 4.072 2.986l12.265-1.885a1.5 1.5 0 1 0-.456-2.965l-12.265 1.885a.57.57 0 0 1-.65-.477l-.315-2.046a.57.57 0 0 1 .477-.65l6.994-1.075a1.501 1.501 0 0 0-.456-2.966zm.65-30.881a1.499 1.499 0 0 0 1.254-1.71l-.943-6.139a1.5 1.5 0 0 0-1.711-1.254l-12.265 1.885a3.571 3.571 0 0 0-2.987 4.071l.315 2.046a3.571 3.571 0 0 0 4.071 2.987l12.266-1.886zm-1.939-2.737-10.783 1.658a.571.571 0 0 1-.65-.477l-.314-2.047a.57.57 0 0 1 .477-.65L26.06 33.24l.487 3.173zm-2.731 7.503-6.988 1.074a3.57 3.57 0 0 0-2.986 4.071l.314 2.047a3.571 3.571 0 0 0 4.071 2.986l12.266-1.885a1.502 1.502 0 0 0 1.255-1.711 1.502 1.502 0 0 0-1.711-1.255l-12.265 1.886a.57.57 0 0 1-.651-.477l-.314-2.046a.57.57 0 0 1 .477-.651l6.988-1.074a1.5 1.5 0 1 0-.456-2.965z"></path><path d="m11.239 22.258-7.538 1.158a1.502 1.502 0 0 0-1.255 1.711c.126.818.892 1.38 1.711 1.255l7.538-1.159a1.5 1.5 0 1 0-.456-2.965zm2.007 13.058-7.538 1.159a1.5 1.5 0 1 0 .456 2.965l7.538-1.159a1.5 1.5 0 0 0-.456-2.965zm2.008 13.058-7.539 1.159a1.5 1.5 0 0 0 .456 2.965l7.538-1.159a1.5 1.5 0 0 0-.455-2.965zm2.007 13.058-7.539 1.159a1.5 1.5 0 0 0 .456 2.965l7.538-1.159a1.5 1.5 0 0 0-.455-2.965zm2.007 13.058-7.539 1.159a1.5 1.5 0 0 0 .456 2.965l7.539-1.159a1.5 1.5 0 0 0-.456-2.965zM46.5 14.259v18.719a1.5 1.5 0 0 0 3 0V14.259a1.5 1.5 0 0 0-3 0zm0 45.568v18.719a1.501 1.501 0 0 0 3 0V59.827a1.5 1.5 0 0 0-3 0zm11.294-43.88-3.818 24.164a1.5 1.5 0 0 0 2.963.468l3.818-24.164a1.501 1.501 0 0 0-2.963-.468zm-3.278 37.771-2.215 24.694a1.5 1.5 0 0 0 2.988.268l2.215-24.694a1.5 1.5 0 0 0-2.988-.268zM36.254 15.813l3.818 19.033a1.5 1.5 0 0 0 2.941-.59l-3.817-19.033a1.5 1.5 0 0 0-2.942.59z"></path></svg>